<?xml version="1.0" standalone="no"?>
<!DOCTYPE svg PUBLIC "-//W3C//DTD SVG 20010904//EN"
 "http://www.w3.org/TR/2001/REC-SVG-20010904/DTD/svg10.dtd">
<svg version="1.0" xmlns="http://www.w3.org/2000/svg"
 width="1080.000000pt" height="1080.000000pt" viewBox="0 0 1080.000000 1080.000000"
 preserveAspectRatio="xMidYMid meet">
<metadata>
Created by potrace 1.14, written by Peter Selinger 2001-2017
</metadata>
<g transform="translate(0.000000,1080.000000) scale(0.100000,-0.100000)"
fill="#000000" stroke="none">
<path d="M0 5400 l0 -5400 5400 0 5400 0 0 5400 0 5400 -5400 0 -5400 0 0
-5400z m2715 1810 c17 -28 972 -2976 966 -2983 -4 -4 -200 -6 -437 -5 l-429 3
-67 255 c-36 140 -69 265 -72 278 l-6 22 -478 -2 -477 -3 -71 -266 c-39 -146
-74 -271 -78 -277 -5 -9 -118 -12 -442 -12 l-435 0 7 23 c3 12 215 672 471
1467 255 795 469 1460 474 1478 l11 32 528 0 c358 0 531 -3 535 -10z m2651
-1052 c316 -1087 312 -1073 319 -1067 2 3 131 448 285 989 155 542 290 1015
301 1053 l20 67 534 0 535 0 -2 -1487 -3 -1488 -365 0 -365 0 -3 735 c-2 550
1 818 13 1064 14 292 14 351 2 335 -2 -2 -136 -483 -299 -1069 l-295 -1065
-381 -3 c-210 -1 -382 0 -382 3 0 13 -592 2113 -600 2130 -12 22 -8 -75 12
-355 8 -107 12 -449 13 -970 l0 -805 -352 -3 -353 -2 0 1490 0 1490 532 -2
532 -3 302 -1037z m4644 712 l0 -330 -360 0 -360 0 0 -1160 0 -1160 -397 2
-398 3 -3 1157 -2 1158 -358 2 -357 3 -3 328 -2 327 1120 0 1120 0 0 -330z"/>
<path d="M2180 6673 c0 -36 -110 -507 -199 -851 -50 -194 -91 -357 -91 -362 0
-6 114 -10 305 -10 168 0 305 3 305 6 0 4 -43 172 -96 373 -103 393 -204 805
-204 833 0 9 -4 20 -10 23 -5 3 -10 -2 -10 -12z"/>
</g>
</svg>
